
<svg aria-hidden="true" style="position: absolute; width: 0; height: 0; overflow: hidden;" version="1.1" xmlns="http://www.w3.org/2000/svg" xmlns:xlink="http://www.w3.org/1999/xlink">
<defs>
<symbol id="icon-delete" viewBox="0 0 24 24">
<path d="M 10.806641 2 C 10.289641 2 9.7956875 2.2043125 9.4296875 2.5703125 L 9 3 L 4 3 A 1.0001 1.0001 0 1 0 4 5 L 20 5 A 1.0001 1.0001 0 1 0 20 3 L 15 3 L 14.570312 2.5703125 C 14.205312 2.2043125 13.710359 2 13.193359 2 L 10.806641 2 z M 4.3652344 7 L 5.8925781 20.263672 C 6.0245781 21.253672 6.877 22 7.875 22 L 16.123047 22 C 17.121047 22 17.974422 21.254859 18.107422 20.255859 L 19.634766 7 L 4.3652344 7 z"></path>
</symbol>

<symbol id="icon-close" viewBox="0 0 45 40">
<path d="M 9.15625 6.3125 L 6.3125 9.15625 L 22.15625 25 L 6.21875 40.96875 L 9.03125 43.78125 L 25 27.84375 L 40.9375 43.78125 L 43.78125 40.9375 L 27.84375 25 L 43.6875 9.15625 L 40.84375 6.3125 L 25 22.15625 Z"></path>
</symbol>
</defs>
</svg>
